<?xml version="1.0" standalone="no"?>
<!DOCTYPE svg PUBLIC "-//W3C//DTD SVG 20010904//EN"
 "http://www.w3.org/TR/2001/REC-SVG-20010904/DTD/svg10.dtd">
<svg version="1.0" xmlns="http://www.w3.org/2000/svg"
 width="2000.000000pt" height="2000.000000pt" viewBox="0 0 2000.000000 2000.000000"
 preserveAspectRatio="xMidYMid meet">

<g transform="translate(0.000000,2000.000000) scale(0.100000,-0.100000)"
fill="#000000" stroke="none">
<path d="M11756 17478 c-504 -1013 -533 -1069 -694 -1348 -318 -549 -623 -906
-875 -1026 -41 -19 -111 -42 -154 -51 -73 -14 -87 -14 -158 0 -148 31 -311
129 -475 289 -256 249 -435 490 -820 1108 -84 135 -169 270 -189 300 -20 30
-65 103 -101 162 -36 59 -71 110 -77 113 -10 3 -11 -20 -7 -103 3 -59 7 -113
10 -120 2 -7 -2 -22 -8 -32 -10 -16 -10 -26 1 -52 16 -40 33 -258 61 -773 19
-340 20 -417 10 -600 -6 -115 -18 -238 -26 -272 -9 -34 -13 -67 -9 -72 13 -22
-46 -276 -96 -411 -69 -187 -237 -381 -354 -411 -22 -5 -65 -17 -95 -27 -44
-13 -89 -17 -220 -16 -192 2 -308 22 -444 79 -47 19 -94 35 -105 35 -11 0 -23
4 -26 10 -3 5 -20 9 -38 9 -36 -1 -149 41 -347 129 -142 64 -438 213 -480 242
-14 10 -61 37 -105 61 -44 23 -179 102 -300 173 -121 72 -240 142 -265 156
-25 13 -83 49 -130 80 -47 31 -186 116 -310 190 -124 73 -299 179 -390 235
-91 56 -223 137 -295 179 -71 43 -170 102 -220 133 -49 30 -106 64 -125 75
-19 11 -46 28 -60 38 -14 9 -33 17 -42 17 -24 0 7 -33 244 -262 109 -104 198
-195 198 -202 0 -7 16 -23 35 -36 102 -69 1366 -1316 1515 -1493 41 -49 101
-119 135 -155 81 -89 204 -260 216 -301 12 -44 12 -45 -9 -50 -9 -3 -26 -21
-37 -41 -19 -35 -19 -37 0 -56 15 -17 30 -21 86 -21 l69 0 20 -39 c36 -72 71
-176 66 -197 -3 -13 -17 -25 -31 -28 -16 -4 -38 -26 -58 -56 -23 -36 -62 -70
-142 -125 -60 -42 -128 -93 -150 -114 -62 -57 -67 -60 -141 -70 -163 -23 -314
-32 -573 -32 -349 0 -539 12 -1146 71 -115 11 -259 24 -320 30 -60 5 -124 12
-141 16 -18 3 -34 2 -38 -4 -3 -5 51 -59 121 -118 115 -100 242 -211 413 -362
36 -32 114 -101 175 -153 171 -146 570 -550 686 -694 122 -150 222 -292 271
-385 55 -104 58 -95 -33 -140 -44 -23 -123 -68 -175 -101 -69 -45 -100 -60
-117 -55 -12 3 -65 37 -117 77 -52 39 -135 100 -185 135 -49 35 -128 91 -175
125 -47 34 -114 82 -150 105 -36 24 -117 82 -180 129 -63 46 -141 103 -173
126 -49 35 -56 44 -45 58 30 40 125 134 143 141 12 4 31 28 44 53 13 25 41 62
62 83 58 56 50 84 -22 84 -17 0 -58 6 -92 14 -34 8 -154 30 -266 48 l-204 33
-22 35 c-30 47 -125 210 -165 285 -19 33 -52 92 -75 130 -22 39 -47 85 -54
103 -9 20 -20 32 -33 32 -23 0 -33 -22 -20 -47 7 -14 -2 -40 -38 -113 -83
-167 -121 -234 -144 -260 -13 -14 -26 -40 -30 -58 -8 -43 -53 -120 -74 -126
-9 -2 -64 -14 -122 -25 -58 -12 -136 -28 -175 -37 -38 -8 -122 -25 -185 -38
-89 -17 -116 -26 -118 -39 -2 -11 73 -95 215 -238 120 -121 219 -222 220 -223
2 -1 -2 -40 -7 -87 -5 -46 -11 -113 -15 -149 -3 -36 -8 -76 -10 -90 -16 -84
-34 -305 -26 -313 5 -5 124 49 289 132 154 78 284 141 290 141 11 0 128 -49
223 -93 161 -75 348 -157 358 -157 15 0 14 27 -5 165 -9 64 -14 119 -11 121 3
3 61 -21 129 -54 277 -134 441 -213 588 -282 85 -40 162 -79 170 -86 12 -12 3
-25 -70 -93 -55 -52 -96 -82 -115 -85 -186 -34 -733 -32 -1455 4 -113 6 -322
15 -465 20 -143 6 -399 17 -570 25 -170 8 -320 15 -332 15 -50 0 -18 -19 80
-50 56 -18 140 -45 187 -60 47 -15 180 -58 295 -95 992 -315 1414 -455 1615
-535 85 -34 159 -65 163 -69 4 -4 -5 -41 -21 -82 -235 -597 -234 -1280 5
-1874 137 -342 386 -705 631 -920 42 -37 80 -73 84 -80 12 -19 -145 -198 -667
-760 -139 -150 -157 -170 -295 -320 -40 -44 -108 -116 -150 -160 -42 -44 -175
-188 -297 -320 -121 -132 -230 -249 -242 -259 -19 -18 -29 -46 -15 -46 3 0 54
32 112 72 59 39 123 82 142 94 19 12 121 77 225 144 105 68 203 130 218 139
15 9 74 46 130 82 219 141 310 200 519 335 120 76 235 149 255 162 21 13 76
48 123 77 172 110 505 286 605 322 38 13 45 12 167 -29 71 -23 128 -45 128
-48 0 -6 -63 -96 -210 -300 -52 -72 -108 -151 -125 -174 -103 -148 -131 -186
-137 -183 -9 3 -109 91 -242 215 -55 50 -105 92 -111 92 -7 0 -17 -36 -24 -83
-7 -45 -19 -118 -26 -162 -20 -112 -42 -249 -54 -324 -6 -35 -12 -65 -13 -66
-8 -7 -338 -198 -505 -292 -24 -13 -43 -30 -43 -38 0 -8 60 -44 140 -85 77
-39 164 -83 193 -99 28 -15 90 -47 137 -71 47 -24 86 -44 88 -45 4 -3 29 -107
36 -150 3 -22 13 -69 21 -105 9 -36 29 -132 45 -214 16 -82 34 -154 40 -160 7
-7 75 55 222 202 117 116 221 217 231 225 19 13 73 10 412 -28 227 -25 235
-26 244 -20 5 3 -56 135 -136 294 l-146 288 41 89 c22 49 73 161 112 249 39
88 80 178 91 201 26 56 25 67 -8 60 -34 -8 -273 -42 -273 -40 0 3 106 225 214
448 91 187 108 217 123 210 10 -4 150 -9 311 -12 l294 -4 14 -33 c7 -19 20
-76 29 -127 60 -369 -60 -892 -338 -1478 -56 -118 -330 -678 -417 -852 -27
-54 -45 -100 -40 -103 5 -3 45 20 89 52 44 32 124 89 178 126 54 37 186 129
293 204 234 163 359 249 410 283 21 14 69 46 107 71 37 25 111 72 163 104 52
32 111 68 130 80 19 13 67 40 105 60 39 21 88 48 110 60 60 35 282 135 345
156 282 92 391 68 469 -103 93 -205 142 -720 127 -1348 -4 -157 -11 -494 -16
-750 -6 -256 -12 -483 -15 -505 -3 -22 -10 -269 -15 -550 -6 -280 -13 -594
-17 -697 -4 -136 -3 -188 5 -188 13 0 18 16 72 245 22 94 45 184 50 200 5 17
18 71 30 120 35 149 80 337 94 390 8 28 21 79 29 115 9 36 30 119 46 185 17
66 60 242 96 390 193 794 235 947 329 1197 127 337 265 576 432 742 136 135
229 182 365 180 77 -1 93 -5 161 -37 227 -109 430 -356 628 -762 110 -226 144
-316 389 -1028 27 -78 79 -227 116 -332 128 -366 157 -451 181 -525 26 -81 39
-108 49 -98 4 3 1 309 -6 680 -16 875 -16 1134 -1 1298 30 315 83 559 143 666
16 28 29 59 29 69 0 30 60 125 122 191 155 165 370 183 668 56 104 -44 221
-109 319 -176 40 -28 90 -62 111 -76 56 -37 164 -126 292 -242 130 -118 157
-144 333 -334 199 -213 246 -266 283 -309 19 -22 69 -78 112 -125 42 -47 121
-134 175 -195 54 -60 127 -141 164 -180 36 -38 102 -110 145 -160 43 -49 106
-119 141 -155 34 -36 97 -105 140 -155 43 -49 120 -135 170 -190 51 -55 126
-137 165 -182 65 -74 90 -95 90 -77 0 3 -17 35 -37 70 -63 108 -91 157 -119
209 -14 28 -41 75 -59 105 -28 48 -167 294 -251 445 -66 120 -306 545 -459
815 -24 41 -54 95 -67 120 -14 25 -51 90 -83 145 -152 262 -276 559 -330 793
-15 62 -39 239 -52 375 -6 62 15 215 48 354 20 82 81 249 97 265 12 12 59 -98
67 -158 7 -50 33 -114 47 -114 20 0 99 -241 178 -545 88 -340 91 -348 101
-338 13 13 209 782 209 821 0 13 9 43 20 68 14 30 24 83 31 162 5 64 16 153
24 198 8 44 15 103 16 130 1 27 6 78 13 113 l11 64 75 32 c194 83 374 183 490
274 156 121 155 121 378 121 255 0 528 -27 717 -70 44 -10 123 -26 175 -35 52
-9 156 -36 230 -60 74 -23 171 -53 215 -65 44 -13 114 -33 155 -46 41 -12 109
-32 150 -43 41 -12 113 -34 160 -48 47 -15 101 -30 120 -34 19 -4 109 -30 200
-58 231 -71 240 -68 104 42 -60 49 -162 132 -227 185 -65 53 -137 113 -161
132 -514 415 -548 443 -685 559 -148 127 -383 353 -492 474 l-79 87 16 38 c73
169 161 462 184 612 6 36 17 101 25 145 10 54 15 150 15 291 l0 211 43 18 c23
9 51 22 62 28 11 6 58 20 105 33 288 76 367 95 470 118 155 33 373 71 575 101
156 23 281 42 425 64 69 11 175 27 235 36 61 8 135 20 165 26 30 5 82 13 115
17 32 4 59 12 59 17 -1 11 -54 30 -179 65 -44 12 -93 26 -110 31 -88 27 -346
102 -455 133 -69 20 -147 43 -175 51 -27 8 -104 31 -170 50 -65 20 -129 42
-141 50 -12 8 -39 16 -60 19 -99 12 -489 174 -653 272 -167 99 -296 221 -337
319 -8 20 -14 67 -14 110 0 63 6 90 31 150 139 335 612 758 1449 1297 47 30
132 85 190 122 256 165 398 256 506 326 65 41 179 116 255 165 76 50 158 102
183 117 45 27 63 55 29 44 -27 -8 -422 -100 -499 -116 -23 -5 -95 -22 -160
-38 -66 -16 -155 -37 -199 -46 -44 -10 -93 -22 -110 -27 -16 -4 -64 -16 -105
-25 -82 -17 -78 -16 -300 -68 -502 -117 -843 -166 -1154 -166 -209 0 -326 18
-414 61 -87 42 -99 71 -83 186 15 104 84 278 156 393 218 346 397 571 820
1034 61 67 153 169 205 227 52 58 196 217 320 354 124 136 245 271 269 299 24
28 76 83 115 123 38 40 67 75 63 79 -6 6 -152 -77 -267 -151 -19 -12 -80 -48
-135 -80 -55 -32 -124 -73 -152 -91 -29 -19 -55 -34 -57 -34 -3 0 -71 -40
-153 -88 -179 -107 -658 -391 -803 -477 -360 -213 -785 -408 -1045 -479 -145
-39 -307 -48 -364 -18 -47 23 -59 64 -60 192 -1 102 18 212 63 380 32 120 131
397 185 515 10 22 37 84 61 138 76 175 279 575 525 1037 51 96 159 301 240
455 81 154 166 314 188 355 47 90 108 205 315 600 30 58 72 135 93 172 38 66
46 88 31 88 -4 0 -55 -57 -112 -126 -58 -70 -136 -164 -175 -209 -160 -187
-259 -304 -435 -515 -105 -125 -169 -201 -220 -260 -58 -67 -253 -299 -375
-445 -299 -358 -395 -461 -554 -593 -296 -245 -633 -414 -956 -481 -128 -26
-235 -37 -235 -24 0 6 14 28 31 49 17 22 85 116 151 209 67 94 133 186 148
205 14 19 45 63 69 98 23 34 47 62 55 62 7 0 25 -14 42 -31 70 -75 276 -249
295 -249 30 0 31 4 74 285 28 178 43 270 50 297 8 30 42 54 185 132 25 14 59
33 76 43 18 10 91 52 163 93 86 49 130 80 128 90 -1 8 -74 51 -162 96 -308
156 -379 194 -391 206 -11 13 -40 131 -69 288 -9 47 -22 112 -30 145 -8 33
-19 90 -26 128 -6 37 -16 67 -23 67 -6 0 -112 -100 -236 -221 l-225 -220 -95
6 c-52 3 -120 10 -150 15 -30 6 -109 15 -175 21 -66 6 -144 13 -172 16 -38 3
-53 1 -53 -8 0 -6 63 -137 140 -291 l141 -278 -32 -73 c-17 -39 -46 -104 -64
-143 -19 -40 -48 -105 -65 -145 -18 -41 -48 -107 -66 -147 -19 -40 -34 -77
-34 -82 0 -14 30 -12 169 11 68 11 125 18 127 16 2 -2 -44 -102 -102 -223 -59
-120 -133 -274 -165 -341 -66 -140 -54 -133 -181 -104 -518 121 -859 503 -958
1073 -17 99 -21 164 -21 333 0 231 13 337 95 760 23 119 46 241 61 325 7 41
18 102 24 135 6 33 18 98 27 145 8 47 21 117 29 155 8 39 21 111 30 160 19
107 34 188 75 396 32 164 35 189 22 189 -4 0 -227 -442 -496 -982z m2319 -725
c4 -16 12 -57 20 -93 28 -135 45 -216 50 -254 4 -21 16 -48 28 -60 12 -12 96
-59 187 -105 223 -113 212 -103 153 -137 -26 -15 -97 -56 -156 -91 -59 -34
-112 -63 -117 -63 -5 0 -24 -15 -43 -32 -29 -28 -36 -43 -45 -103 -7 -38 -21
-131 -33 -205 -12 -74 -24 -138 -28 -142 -3 -4 -80 61 -170 143 -157 144 -166
151 -200 146 -20 -2 -118 -16 -219 -32 -101 -15 -186 -25 -189 -22 -3 3 32 86
77 184 45 98 85 192 87 209 4 24 -15 71 -92 223 -53 106 -94 195 -91 198 2 3
46 -1 98 -7 170 -22 242 -29 302 -29 l58 -1 147 150 c80 82 152 150 158 150 7
0 15 -12 18 -27z m-1923 -2353 c206 -30 484 -110 556 -160 l22 -15 -51 -105
c-263 -541 -396 -820 -381 -805 5 6 134 186 287 400 153 215 286 399 296 409
17 19 19 19 71 -13 161 -98 388 -301 511 -457 128 -163 255 -389 311 -554 16
-47 32 -88 36 -93 3 -4 40 6 81 23 177 74 398 107 593 89 440 -41 813 -293
1013 -685 96 -188 136 -353 136 -569 0 -230 -40 -395 -146 -598 -61 -118 -190
-282 -281 -356 -36 -30 -66 -58 -66 -61 0 -4 19 -22 43 -41 23 -18 86 -76 141
-129 316 -304 527 -640 660 -1048 150 -462 164 -939 41 -1418 -45 -175 -91
-297 -180 -479 -205 -418 -518 -767 -917 -1021 -101 -65 -313 -173 -415 -213
l-53 -21 0 168 c0 171 -18 384 -44 527 -16 88 -57 257 -61 253 -2 -2 -8 -86
-14 -188 -17 -284 -33 -433 -77 -735 -26 -171 -99 -566 -132 -705 l-18 -75
-38 110 c-76 222 -212 468 -352 636 -140 168 -340 333 -485 401 -104 49 -110
47 -47 -19 68 -72 129 -164 196 -299 38 -76 102 -219 102 -228 0 -7 -240 18
-336 34 -492 83 -949 312 -1315 658 l-105 100 -29 -82 c-42 -120 -128 -286
-212 -410 -373 -552 -978 -875 -1640 -876 -804 -1 -1532 485 -1834 1225 -18
44 -34 81 -35 83 -1 2 -36 -22 -78 -52 -424 -314 -967 -472 -1493 -436 -82 6
-156 13 -165 16 -19 6 -20 3 287 639 168 347 215 449 206 440 -5 -5 -40 -53
-78 -105 -37 -53 -202 -283 -366 -512 l-298 -416 -72 20 c-349 98 -692 297
-961 557 -198 193 -328 371 -457 627 -173 345 -249 695 -236 1099 18 562 234
1081 624 1494 l89 94 454 -218 c250 -120 478 -229 505 -242 28 -14 46 -21 40
-15 -5 5 -194 141 -420 302 -225 161 -412 295 -414 296 -9 8 28 38 133 108
137 91 286 170 427 226 l106 42 -29 91 c-53 169 -63 244 -62 462 0 223 13 305
78 500 221 660 891 1103 1581 1045 325 -27 625 -144 858 -334 32 -26 60 -46
62 -44 1 2 -2 37 -7 78 -13 97 -3 271 22 387 101 481 487 855 978 949 115 22
329 22 444 0 226 -43 439 -149 606 -301 l63 -58 57 55 c320 308 745 508 1182
557 142 16 361 12 502 -9z m-8959 -2124 c8 -25 43 -88 176 -321 19 -33 -3 -27
316 -81 132 -22 145 -25 145 -32 -1 -7 -14 -22 -187 -210 -114 -124 -112 -117
-92 -247 26 -169 46 -320 44 -323 -2 -2 -23 6 -47 17 -23 10 -112 51 -197 90
-85 39 -158 71 -163 71 -5 0 -96 -44 -203 -97 -107 -53 -198 -94 -201 -90 -4
3 1 77 11 164 9 87 19 184 22 215 l5 57 -113 118 c-62 65 -133 138 -157 162
-51 52 -51 51 63 75 44 10 109 23 145 31 36 8 91 19 122 25 31 6 62 18 70 27
14 18 45 74 140 261 65 128 83 143 101 88z m1808 -6797 c24 -23 85 -78 134
-122 50 -45 101 -92 115 -104 28 -26 66 -29 170 -12 200 31 310 44 310 38 0
-4 -13 -36 -29 -71 -94 -203 -141 -314 -141 -335 0 -13 37 -96 83 -186 45 -89
88 -175 95 -191 l13 -29 -93 7 c-51 3 -145 13 -209 23 -63 9 -127 13 -140 10
-14 -4 -91 -74 -173 -157 -82 -82 -152 -150 -156 -150 -8 0 -13 20 -46 175 -8
39 -22 98 -30 132 -7 34 -14 71 -14 81 0 38 -39 66 -216 157 -98 51 -179 97
-179 103 0 7 83 60 185 119 l185 108 12 55 c12 51 28 145 54 318 6 39 14 72
18 72 4 0 28 -19 52 -41z"/>
<path d="M12843 12608 c-33 -16 -30 -62 5 -98 34 -34 106 -56 142 -43 22 7 25
14 25 57 0 41 -4 52 -27 69 -31 23 -113 32 -145 15z"/>
<path d="M9297 12536 c-92 -34 -156 -121 -181 -248 -21 -100 -21 -404 -1 -623
8 -88 15 -192 15 -232 l0 -71 -45 -29 c-38 -24 -45 -33 -45 -61 0 -40 23 -88
50 -102 11 -6 36 -11 55 -12 22 -1 39 -8 44 -17 5 -9 39 -117 76 -241 37 -124
74 -237 82 -252 29 -58 120 -90 178 -62 64 30 64 49 -4 260 -34 104 -65 198
-70 209 -16 37 -71 233 -71 254 0 15 24 39 82 81 87 64 397 255 403 248 6 -5
42 -414 61 -678 9 -129 20 -247 26 -261 17 -47 72 -91 120 -96 37 -4 46 -1 67
21 26 28 26 3 5 397 -8 137 4 187 72 320 69 133 264 354 373 423 52 33 91 82
91 115 0 56 -58 101 -129 101 -45 0 -41 3 -224 -164 -54 -49 -130 -129 -169
-178 -39 -49 -72 -87 -74 -86 -1 2 -7 64 -13 137 -13 154 -21 171 -97 190 -71
18 -124 -2 -124 -45 0 -19 -5 -24 -24 -24 -37 0 -108 -35 -299 -147 -99 -58
-182 -101 -187 -97 -13 14 -30 216 -30 365 0 230 39 425 88 444 9 4 41 11 71
15 77 13 101 32 101 79 0 62 -24 76 -139 79 -63 1 -109 -3 -134 -12z"/>
<path d="M12355 12516 c-14 -21 -14 -58 -5 -327 5 -167 13 -353 16 -414 l7
-110 -69 0 c-59 0 -78 -5 -131 -34 -72 -39 -200 -165 -256 -254 -189 -296
-215 -579 -60 -677 91 -58 186 -66 270 -25 67 34 172 140 241 245 31 47 57 87
59 89 9 13 19 -38 63 -359 52 -374 53 -375 112 -406 32 -16 121 -19 149 -4 29
16 25 74 -25 426 -133 921 -166 1216 -172 1509 -3 132 -10 255 -16 273 -5 17
-23 46 -40 62 -25 25 -37 30 -79 30 -40 0 -51 -4 -64 -24z m-16 -1071 c71 -36
66 -157 -14 -315 -78 -154 -194 -269 -298 -294 -46 -11 -57 7 -57 88 0 173 60
319 186 455 70 75 79 81 115 81 22 0 53 -7 68 -15z"/>
<path d="M7471 12208 c-57 -20 -147 -111 -186 -192 -72 -146 -102 -280 -152
-666 -48 -381 -51 -486 -18 -581 21 -60 72 -119 129 -149 42 -23 49 -24 121
-13 183 26 321 149 535 473 95 146 190 343 190 397 0 33 -46 81 -86 89 -75 14
-110 -23 -150 -159 -31 -105 -180 -337 -301 -467 -66 -72 -171 -150 -202 -150
-39 0 -56 45 -55 145 1 96 113 881 139 970 27 92 78 145 148 152 44 5 44 5
148 -74 72 -56 139 -39 160 40 l11 42 -51 47 c-81 75 -148 102 -255 105 -50 1
-106 -3 -125 -9z"/>
<path d="M11300 12053 c-196 -79 -351 -243 -439 -463 -74 -186 -113 -414 -115
-665 l-1 -170 45 -22 c145 -74 271 37 466 410 79 152 104 189 104 155 0 -27
31 -348 45 -465 15 -127 38 -193 75 -213 10 -6 39 -13 63 -16 37 -5 48 -2 72
18 l28 24 -12 170 c-6 93 -16 295 -21 449 -22 594 -49 761 -130 802 -40 20
-109 15 -180 -14z m-20 -347 c-32 -236 -133 -453 -270 -581 l-32 -30 7 60 c10
92 53 297 75 360 11 31 35 82 54 114 45 74 166 201 173 182 3 -7 0 -55 -7
-105z"/>
<path d="M13845 12057 c-129 -48 -264 -154 -344 -271 -86 -125 -156 -318 -191
-526 -17 -101 -39 -353 -40 -448 0 -76 103 -123 195 -88 100 39 179 140 329
421 52 99 97 173 100 165 3 -8 10 -80 16 -160 19 -231 47 -446 65 -479 20 -41
55 -62 109 -68 38 -5 48 -2 70 20 29 29 31 47 16 177 -5 47 -14 216 -20 375
-25 685 -48 840 -129 888 -39 23 -103 21 -176 -6z m-19 -279 c-22 -182 -53
-302 -106 -413 -32 -67 -127 -201 -174 -244 l-26 -24 0 30 c0 16 9 81 20 144
45 252 87 350 207 478 41 45 77 81 80 81 3 0 2 -24 -1 -52z"/>
<path d="M12878 11885 c-15 -9 -30 -26 -33 -38 -3 -12 3 -92 14 -177 11 -85
39 -344 61 -575 33 -332 46 -424 59 -439 38 -43 129 -66 165 -42 45 29 50 65
27 171 -35 160 -49 277 -66 550 -26 431 -41 516 -95 545 -33 18 -105 20 -132
5z"/>
<path d="M8330 11702 c-19 -16 -27 -53 -73 -370 -49 -336 -50 -356 -39 -433
19 -135 77 -230 168 -275 53 -26 175 -26 224 0 113 59 216 172 286 311 62 125
74 195 51 326 -28 166 -110 310 -201 353 -40 19 -113 21 -169 4 -34 -10 -41
-10 -45 2 -3 8 -24 34 -47 58 -37 37 -48 42 -88 42 -28 0 -53 -7 -67 -18z
m370 -291 c47 -50 66 -113 63 -218 -3 -101 -29 -162 -113 -258 -116 -135 -159
-152 -196 -78 -16 32 -19 61 -19 173 1 157 17 235 69 320 65 106 133 127 196
61z"/>
<path d="M11232 9964 c-31 -21 -28 -60 6 -94 34 -34 106 -56 141 -44 32 12 47
56 31 93 -21 53 -129 80 -178 45z"/>
<path d="M9178 9575 c-110 -117 -138 -166 -124 -221 24 -95 127 -62 251 83
116 135 127 167 76 222 -22 23 -38 31 -63 31 -29 -1 -46 -15 -140 -115z"/>
<path d="M8130 9568 c-53 -18 -151 -122 -188 -198 -69 -146 -99 -281 -148
-665 -49 -388 -52 -468 -17 -575 12 -38 32 -69 64 -102 61 -61 106 -75 196
-60 169 28 291 133 494 427 111 160 219 378 219 443 0 62 -86 108 -151 82 -34
-15 -49 -40 -74 -124 -30 -107 -104 -233 -236 -406 -63 -82 -128 -147 -203
-204 -94 -70 -130 -40 -129 108 2 112 124 944 148 1001 30 72 95 125 153 125
28 0 43 -9 133 -77 71 -55 137 -39 161 39 l12 41 -52 48 c-82 76 -148 103
-256 106 -50 1 -107 -3 -126 -9z"/>
<path d="M11274 9249 c-41 -21 -44 -46 -23 -211 10 -84 38 -345 62 -579 30
-298 47 -432 57 -443 19 -24 58 -43 107 -51 39 -6 46 -4 73 23 36 37 37 50 6
195 -31 148 -43 252 -61 552 -24 389 -38 476 -83 499 -38 20 -113 28 -138 15z"/>
<path d="M10277 9190 c-15 -12 -47 -58 -71 -103 -25 -45 -46 -77 -46 -70 0 7
-7 10 -15 7 -8 -4 -15 -1 -15 5 0 21 -20 11 -26 -13 -5 -21 -40 -46 -64 -46
-18 0 -10 57 10 75 21 19 18 37 -5 28 -9 -3 -15 1 -15 11 0 9 -4 16 -10 16 -5
0 -10 -6 -10 -13 0 -8 -7 -14 -15 -14 -8 0 -15 7 -15 14 0 8 -13 28 -29 44
-33 32 -82 38 -154 18 -51 -14 -61 -42 -48 -130 12 -76 24 -229 50 -663 16
-261 21 -301 38 -324 36 -48 71 -67 123 -67 71 0 87 20 106 130 33 195 167
640 204 679 13 13 16 -13 40 -319 12 -154 26 -299 32 -322 14 -59 55 -95 117
-101 61 -6 97 3 110 26 5 9 46 158 90 331 45 173 86 321 91 330 11 20 6 39 80
-338 42 -215 64 -309 77 -323 27 -30 70 -49 115 -51 33 -1 45 4 65 27 29 34
35 -10 -50 431 -36 187 -75 394 -86 460 -12 66 -25 135 -31 154 -14 50 -51 99
-87 116 -43 21 -116 20 -135 -2 -27 -30 -73 -150 -123 -320 -27 -90 -52 -163
-56 -163 -7 0 -14 77 -28 293 -7 104 -12 134 -28 155 -38 51 -140 68 -186 32z
m-267 -191 c0 -24 -4 -38 -10 -34 -5 3 -10 24 -10 46 0 24 4 38 10 34 6 -3 10
-24 10 -46z m119 -28 c12 -8 12 -13 -3 -35 -19 -30 -17 -30 -51 -14 -32 14
-31 19 3 40 33 20 34 20 51 9z m-119 -91 c0 -22 -4 -40 -10 -40 -11 0 -14 63
-3 73 11 12 13 8 13 -33z m60 23 c28 -16 28 -17 12 -50 -15 -31 -17 -32 -34
-16 -17 15 -27 83 -12 83 3 0 19 -7 34 -17z m-40 -110 c0 17 20 25 20 7 0 -17
-36 -70 -43 -63 -4 3 -7 22 -7 42 0 33 1 34 15 15 13 -17 14 -17 15 -1z"/>
<path d="M13225 9106 c-99 -19 -161 -51 -310 -163 -149 -111 -293 -252 -324
-316 -40 -83 -21 -147 57 -186 47 -23 80 -31 172 -41 65 -7 97 -3 244 26 93
19 175 34 183 34 30 0 -57 -132 -181 -273 -91 -104 -102 -130 -70 -176 20 -27
72 -51 113 -51 25 0 37 11 82 73 30 39 95 124 146 189 161 204 203 275 203
345 0 35 -45 79 -94 92 -84 21 -149 14 -421 -43 -66 -14 -137 -26 -158 -26
l-38 0 30 44 c47 68 201 207 276 249 87 48 153 67 231 67 74 0 86 11 82 76 -2
37 -9 51 -28 65 -34 25 -111 31 -195 15z"/>
<path d="M8991 9063 c-19 -16 -27 -57 -72 -363 -54 -368 -56 -425 -22 -525 61
-183 229 -264 384 -185 135 69 274 251 325 425 28 100 6 268 -53 392 -32 70
-114 159 -159 173 -34 12 -115 9 -174 -5 -21 -5 -29 1 -49 33 -12 21 -36 46
-51 55 -37 22 -102 22 -129 0z m350 -270 c94 -55 114 -282 37 -410 -45 -75
-177 -213 -204 -213 -52 0 -83 79 -84 210 0 145 27 255 86 345 53 81 106 103
165 68z"/>
<path d="M12032 9049 c-136 -67 -275 -289 -338 -537 -35 -136 -28 -285 16
-377 64 -133 243 -210 364 -156 166 73 405 359 406 484 0 56 -13 73 -69 87
-80 19 -112 3 -157 -78 -44 -80 -186 -265 -230 -298 -44 -34 -60 -30 -86 19
-18 34 -23 63 -26 149 -6 161 29 303 119 480 l33 63 12 -60 c7 -33 15 -83 18
-112 6 -69 19 -90 65 -103 49 -13 92 1 112 38 22 38 8 355 -17 383 -50 56
-133 63 -222 18z"/>
<path d="M14596 5584 c-10 -27 -7 -69 8 -90 14 -18 15 -18 25 9 14 37 14 70
-1 85 -16 16 -25 15 -32 -4z"/>
<path d="M14647 4780 c-32 -26 -41 -62 -23 -103 34 -82 156 -68 156 17 0 59
-18 93 -52 100 -46 9 -53 8 -81 -14z"/>
</g>
</svg>
